<mxfile host="app.diagrams.net" modified="2024-05-14T15:58:20.082Z" agent="Mozilla/5.0 (Windows NT 10.0; Win64; x64) AppleWebKit/537.36 (KHTML, like Gecko) Chrome/124.0.0.0 Safari/537.36" etag="82XhGYcMQHZ0pAokgmcS" version="24.3.1" type="github">
  <diagram name="Page-1" id="nSaOMhIKzKD4aCZZ9AsJ">
    <mxGraphModel dx="2787" dy="2155" grid="1" gridSize="10" guides="1" tooltips="1" connect="1" arrows="1" fold="1" page="1" pageScale="1" pageWidth="850" pageHeight="1100" math="0" shadow="0">
      <root>
        <mxCell id="0" />
        <mxCell id="1" parent="0" />
        <mxCell id="XoLHvi1FjI8Cl4qUDjgd-1" value="Admin" style="rounded=0;whiteSpace=wrap;html=1;fillColor=#dae8fc;strokeColor=#6c8ebf;" parent="1" vertex="1">
          <mxGeometry x="120" y="160" width="80" height="40" as="geometry" />
        </mxCell>
        <mxCell id="XoLHvi1FjI8Cl4qUDjgd-2" value="username&lt;span style=&quot;color: rgba(0, 0, 0, 0); font-family: monospace; font-size: 0px; text-align: start; text-wrap: nowrap;&quot;&gt;%3CmxGraphModel%3E%3Croot%3E%3CmxCell%20id%3D%220%22%2F%3E%3CmxCell%20id%3D%221%22%20parent%3D%220%22%2F%3E%3CmxCell%20id%3D%222%22%20value%3D%22%23_id%22%20style%3D%22ellipse%3BwhiteSpace%3Dwrap%3Bhtml%3D1%3B%22%20vertex%3D%221%22%20parent%3D%221%22%3E%3CmxGeometry%20x%3D%2230%22%20y%3D%22110%22%20width%3D%2280%22%20height%3D%2240%22%20as%3D%22geometry%22%2F%3E%3C%2FmxCell%3E%3C%2Froot%3E%3C%2FmxGraphModel%3E&lt;/span&gt;&lt;span style=&quot;color: rgba(0, 0, 0, 0); font-family: monospace; font-size: 0px; text-align: start; text-wrap: nowrap;&quot;&gt;%3CmxGraphModel%3E%3Croot%3E%3CmxCell%20id%3D%220%22%2F%3E%3CmxCell%20id%3D%221%22%20parent%3D%220%22%2F%3E%3CmxCell%20id%3D%222%22%20value%3D%22%23_id%22%20style%3D%22ellipse%3BwhiteSpace%3Dwrap%3Bhtml%3D1%3B%22%20vertex%3D%221%22%20parent%3D%221%22%3E%3CmxGeometry%20x%3D%2230%22%20y%3D%22110%22%20width%3D%2280%22%20height%3D%2240%22%20as%3D%22geometry%22%2F%3E%3C%2FmxCell%3E%3C%2Froot%3E%3C%2FmxGraphModel%3E&lt;/span&gt;" style="ellipse;whiteSpace=wrap;html=1;fillColor=#e1d5e7;strokeColor=#9673a6;" parent="1" vertex="1">
          <mxGeometry x="-20" y="180" width="80" height="40" as="geometry" />
        </mxCell>
        <mxCell id="XoLHvi1FjI8Cl4qUDjgd-3" value="#_id" style="ellipse;whiteSpace=wrap;html=1;fillColor=#e1d5e7;strokeColor=#9673a6;" parent="1" vertex="1">
          <mxGeometry x="40" y="220" width="80" height="40" as="geometry" />
        </mxCell>
        <mxCell id="XoLHvi1FjI8Cl4qUDjgd-4" value="email" style="ellipse;whiteSpace=wrap;html=1;fillColor=#e1d5e7;strokeColor=#9673a6;" parent="1" vertex="1">
          <mxGeometry x="-40" y="130" width="80" height="40" as="geometry" />
        </mxCell>
        <mxCell id="XoLHvi1FjI8Cl4qUDjgd-5" value="password" style="ellipse;whiteSpace=wrap;html=1;fillColor=#e1d5e7;strokeColor=#9673a6;" parent="1" vertex="1">
          <mxGeometry x="10" y="90" width="80" height="40" as="geometry" />
        </mxCell>
        <mxCell id="XoLHvi1FjI8Cl4qUDjgd-6" value="status" style="ellipse;whiteSpace=wrap;html=1;fillColor=#e1d5e7;strokeColor=#9673a6;" parent="1" vertex="1">
          <mxGeometry x="60" y="50" width="80" height="40" as="geometry" />
        </mxCell>
        <mxCell id="XoLHvi1FjI8Cl4qUDjgd-11" value="" style="endArrow=none;html=1;rounded=0;" parent="1" edge="1">
          <mxGeometry width="50" height="50" relative="1" as="geometry">
            <mxPoint x="90" y="220" as="sourcePoint" />
            <mxPoint x="120" y="190" as="targetPoint" />
          </mxGeometry>
        </mxCell>
        <mxCell id="XoLHvi1FjI8Cl4qUDjgd-12" value="" style="endArrow=none;html=1;rounded=0;entryX=0;entryY=0.5;entryDx=0;entryDy=0;" parent="1" target="XoLHvi1FjI8Cl4qUDjgd-1" edge="1">
          <mxGeometry width="50" height="50" relative="1" as="geometry">
            <mxPoint x="55" y="190" as="sourcePoint" />
            <mxPoint x="105" y="140" as="targetPoint" />
          </mxGeometry>
        </mxCell>
        <mxCell id="XoLHvi1FjI8Cl4qUDjgd-13" value="" style="endArrow=none;html=1;rounded=0;entryX=0;entryY=0.25;entryDx=0;entryDy=0;exitX=1;exitY=0.5;exitDx=0;exitDy=0;" parent="1" source="XoLHvi1FjI8Cl4qUDjgd-4" target="XoLHvi1FjI8Cl4qUDjgd-1" edge="1">
          <mxGeometry width="50" height="50" relative="1" as="geometry">
            <mxPoint x="40" y="150" as="sourcePoint" />
            <mxPoint x="90" y="100" as="targetPoint" />
          </mxGeometry>
        </mxCell>
        <mxCell id="XoLHvi1FjI8Cl4qUDjgd-14" value="" style="endArrow=none;html=1;rounded=0;entryX=0;entryY=0;entryDx=0;entryDy=0;exitX=1;exitY=1;exitDx=0;exitDy=0;" parent="1" source="XoLHvi1FjI8Cl4qUDjgd-5" target="XoLHvi1FjI8Cl4qUDjgd-1" edge="1">
          <mxGeometry width="50" height="50" relative="1" as="geometry">
            <mxPoint x="90" y="110" as="sourcePoint" />
            <mxPoint x="140" y="60" as="targetPoint" />
          </mxGeometry>
        </mxCell>
        <mxCell id="XoLHvi1FjI8Cl4qUDjgd-15" value="" style="endArrow=none;html=1;rounded=0;" parent="1" target="XoLHvi1FjI8Cl4qUDjgd-6" edge="1">
          <mxGeometry width="50" height="50" relative="1" as="geometry">
            <mxPoint x="135" y="160" as="sourcePoint" />
            <mxPoint x="185" y="110" as="targetPoint" />
          </mxGeometry>
        </mxCell>
        <mxCell id="XoLHvi1FjI8Cl4qUDjgd-22" value="Has" style="html=1;whiteSpace=wrap;aspect=fixed;shape=isoRectangle;fillColor=#d5e8d4;strokeColor=#82b366;" parent="1" vertex="1">
          <mxGeometry x="240" y="158" width="73.33" height="44" as="geometry" />
        </mxCell>
        <mxCell id="XoLHvi1FjI8Cl4qUDjgd-23" value="" style="endArrow=none;html=1;rounded=0;" parent="1" target="XoLHvi1FjI8Cl4qUDjgd-22" edge="1">
          <mxGeometry width="50" height="50" relative="1" as="geometry">
            <mxPoint x="200" y="180" as="sourcePoint" />
            <mxPoint x="250" y="130" as="targetPoint" />
          </mxGeometry>
        </mxCell>
        <mxCell id="XoLHvi1FjI8Cl4qUDjgd-24" value="Role" style="rounded=0;whiteSpace=wrap;html=1;fillColor=#dae8fc;strokeColor=#6c8ebf;" parent="1" vertex="1">
          <mxGeometry x="350" y="158" width="80" height="40" as="geometry" />
        </mxCell>
        <mxCell id="XoLHvi1FjI8Cl4qUDjgd-25" value="" style="endArrow=none;html=1;rounded=0;" parent="1" edge="1">
          <mxGeometry width="50" height="50" relative="1" as="geometry">
            <mxPoint x="313.33" y="180" as="sourcePoint" />
            <mxPoint x="350" y="180" as="targetPoint" />
          </mxGeometry>
        </mxCell>
        <mxCell id="XoLHvi1FjI8Cl4qUDjgd-26" value="label" style="ellipse;whiteSpace=wrap;html=1;fillColor=#e1d5e7;strokeColor=#9673a6;" parent="1" vertex="1">
          <mxGeometry x="500" y="160" width="80" height="40" as="geometry" />
        </mxCell>
        <mxCell id="XoLHvi1FjI8Cl4qUDjgd-27" value="name" style="ellipse;whiteSpace=wrap;html=1;fillColor=#e1d5e7;strokeColor=#9673a6;" parent="1" vertex="1">
          <mxGeometry x="480" y="110" width="80" height="40" as="geometry" />
        </mxCell>
        <mxCell id="XoLHvi1FjI8Cl4qUDjgd-28" value="#_id" style="ellipse;whiteSpace=wrap;html=1;fillColor=#e1d5e7;strokeColor=#9673a6;" parent="1" vertex="1">
          <mxGeometry x="420" y="70" width="80" height="40" as="geometry" />
        </mxCell>
        <mxCell id="XoLHvi1FjI8Cl4qUDjgd-29" value="permissions" style="ellipse;whiteSpace=wrap;html=1;fillColor=#e1d5e7;strokeColor=#9673a6;" parent="1" vertex="1">
          <mxGeometry x="470" y="210" width="80" height="40" as="geometry" />
        </mxCell>
        <mxCell id="XoLHvi1FjI8Cl4qUDjgd-31" value="" style="endArrow=none;html=1;rounded=0;exitX=0.75;exitY=0;exitDx=0;exitDy=0;" parent="1" source="XoLHvi1FjI8Cl4qUDjgd-24" edge="1">
          <mxGeometry width="50" height="50" relative="1" as="geometry">
            <mxPoint x="405" y="152.5" as="sourcePoint" />
            <mxPoint x="445" y="107.5" as="targetPoint" />
          </mxGeometry>
        </mxCell>
        <mxCell id="XoLHvi1FjI8Cl4qUDjgd-33" value="" style="endArrow=none;html=1;rounded=0;entryX=0;entryY=1;entryDx=0;entryDy=0;exitX=1;exitY=0.25;exitDx=0;exitDy=0;" parent="1" source="XoLHvi1FjI8Cl4qUDjgd-24" target="XoLHvi1FjI8Cl4qUDjgd-27" edge="1">
          <mxGeometry width="50" height="50" relative="1" as="geometry">
            <mxPoint x="430" y="170" as="sourcePoint" />
            <mxPoint x="480" y="120" as="targetPoint" />
            <Array as="points">
              <mxPoint x="492" y="144" />
            </Array>
          </mxGeometry>
        </mxCell>
        <mxCell id="XoLHvi1FjI8Cl4qUDjgd-34" value="" style="endArrow=none;html=1;rounded=0;exitX=1;exitY=0.5;exitDx=0;exitDy=0;" parent="1" source="XoLHvi1FjI8Cl4qUDjgd-24" edge="1">
          <mxGeometry width="50" height="50" relative="1" as="geometry">
            <mxPoint x="440" y="180" as="sourcePoint" />
            <mxPoint x="500" y="180" as="targetPoint" />
          </mxGeometry>
        </mxCell>
        <mxCell id="XoLHvi1FjI8Cl4qUDjgd-35" value="" style="endArrow=none;html=1;rounded=0;entryX=1;entryY=1;entryDx=0;entryDy=0;exitX=0;exitY=0;exitDx=0;exitDy=0;" parent="1" source="XoLHvi1FjI8Cl4qUDjgd-29" target="XoLHvi1FjI8Cl4qUDjgd-24" edge="1">
          <mxGeometry width="50" height="50" relative="1" as="geometry">
            <mxPoint x="390" y="260" as="sourcePoint" />
            <mxPoint x="440" y="210" as="targetPoint" />
          </mxGeometry>
        </mxCell>
        <mxCell id="XoLHvi1FjI8Cl4qUDjgd-37" value="Employee" style="rounded=0;whiteSpace=wrap;html=1;fillColor=#dae8fc;strokeColor=#6c8ebf;" parent="1" vertex="1">
          <mxGeometry x="120" y="330" width="80" height="40" as="geometry" />
        </mxCell>
        <mxCell id="XoLHvi1FjI8Cl4qUDjgd-38" value="Has" style="html=1;whiteSpace=wrap;aspect=fixed;shape=isoRectangle;fillColor=#d5e8d4;strokeColor=#82b366;" parent="1" vertex="1">
          <mxGeometry x="123.34" y="250" width="73.33" height="44" as="geometry" />
        </mxCell>
        <mxCell id="XoLHvi1FjI8Cl4qUDjgd-39" value="" style="endArrow=none;html=1;rounded=0;entryX=0.5;entryY=1;entryDx=0;entryDy=0;" parent="1" target="XoLHvi1FjI8Cl4qUDjgd-1" edge="1">
          <mxGeometry width="50" height="50" relative="1" as="geometry">
            <mxPoint x="160" y="250" as="sourcePoint" />
            <mxPoint x="159.55" y="210" as="targetPoint" />
          </mxGeometry>
        </mxCell>
        <mxCell id="XoLHvi1FjI8Cl4qUDjgd-40" value="" style="endArrow=none;html=1;rounded=0;entryX=0.5;entryY=1;entryDx=0;entryDy=0;" parent="1" edge="1">
          <mxGeometry width="50" height="50" relative="1" as="geometry">
            <mxPoint x="160" y="330" as="sourcePoint" />
            <mxPoint x="159.55" y="294" as="targetPoint" />
          </mxGeometry>
        </mxCell>
        <mxCell id="XoLHvi1FjI8Cl4qUDjgd-41" value="#_id" style="ellipse;whiteSpace=wrap;html=1;fillColor=#e1d5e7;strokeColor=#9673a6;" parent="1" vertex="1">
          <mxGeometry y="290" width="80" height="40" as="geometry" />
        </mxCell>
        <mxCell id="XoLHvi1FjI8Cl4qUDjgd-42" value="name" style="ellipse;whiteSpace=wrap;html=1;fillColor=#e1d5e7;strokeColor=#9673a6;" parent="1" vertex="1">
          <mxGeometry x="-70" y="320" width="80" height="40" as="geometry" />
        </mxCell>
        <mxCell id="XoLHvi1FjI8Cl4qUDjgd-43" value="address" style="ellipse;whiteSpace=wrap;html=1;fillColor=#e1d5e7;strokeColor=#9673a6;" parent="1" vertex="1">
          <mxGeometry x="-50" y="370" width="80" height="40" as="geometry" />
        </mxCell>
        <mxCell id="XoLHvi1FjI8Cl4qUDjgd-45" value="status" style="ellipse;whiteSpace=wrap;html=1;fillColor=#e1d5e7;strokeColor=#9673a6;" parent="1" vertex="1">
          <mxGeometry x="20" y="400" width="80" height="40" as="geometry" />
        </mxCell>
        <mxCell id="XoLHvi1FjI8Cl4qUDjgd-47" value="Has" style="html=1;whiteSpace=wrap;aspect=fixed;shape=isoRectangle;fillColor=#d5e8d4;strokeColor=#82b366;" parent="1" vertex="1">
          <mxGeometry x="123.34" y="440" width="73.33" height="44" as="geometry" />
        </mxCell>
        <mxCell id="XoLHvi1FjI8Cl4qUDjgd-49" value="Department" style="rounded=0;whiteSpace=wrap;html=1;fillColor=#dae8fc;strokeColor=#6c8ebf;" parent="1" vertex="1">
          <mxGeometry x="-40" y="530" width="80" height="40" as="geometry" />
        </mxCell>
        <mxCell id="XoLHvi1FjI8Cl4qUDjgd-50" value="Attendance" style="rounded=0;whiteSpace=wrap;html=1;fillColor=#dae8fc;strokeColor=#6c8ebf;" parent="1" vertex="1">
          <mxGeometry x="260" y="590" width="80" height="40" as="geometry" />
        </mxCell>
        <mxCell id="XoLHvi1FjI8Cl4qUDjgd-51" value="Designation" style="rounded=0;whiteSpace=wrap;html=1;fillColor=#dae8fc;strokeColor=#6c8ebf;" parent="1" vertex="1">
          <mxGeometry x="80" y="600" width="80" height="40" as="geometry" />
        </mxCell>
        <mxCell id="XoLHvi1FjI8Cl4qUDjgd-52" value="Leave" style="rounded=0;whiteSpace=wrap;html=1;fillColor=#dae8fc;strokeColor=#6c8ebf;" parent="1" vertex="1">
          <mxGeometry x="390" y="520" width="80" height="40" as="geometry" />
        </mxCell>
        <mxCell id="XoLHvi1FjI8Cl4qUDjgd-53" value="Leave Type" style="rounded=0;whiteSpace=wrap;html=1;fillColor=#dae8fc;strokeColor=#6c8ebf;" parent="1" vertex="1">
          <mxGeometry x="390" y="320" width="80" height="40" as="geometry" />
        </mxCell>
        <mxCell id="XoLHvi1FjI8Cl4qUDjgd-54" value="#_id" style="ellipse;whiteSpace=wrap;html=1;fillColor=#e1d5e7;strokeColor=#9673a6;" parent="1" vertex="1">
          <mxGeometry x="-140" y="484" width="80" height="40" as="geometry" />
        </mxCell>
        <mxCell id="XoLHvi1FjI8Cl4qUDjgd-55" value="name" style="ellipse;whiteSpace=wrap;html=1;fillColor=#e1d5e7;strokeColor=#9673a6;" parent="1" vertex="1">
          <mxGeometry x="-210" y="550" width="80" height="40" as="geometry" />
        </mxCell>
        <mxCell id="XoLHvi1FjI8Cl4qUDjgd-56" value="label" style="ellipse;whiteSpace=wrap;html=1;fillColor=#e1d5e7;strokeColor=#9673a6;" parent="1" vertex="1">
          <mxGeometry x="-140" y="610" width="80" height="40" as="geometry" />
        </mxCell>
        <mxCell id="XoLHvi1FjI8Cl4qUDjgd-57" value="#_id" style="ellipse;whiteSpace=wrap;html=1;fillColor=#e1d5e7;strokeColor=#9673a6;" parent="1" vertex="1">
          <mxGeometry x="-10" y="690" width="80" height="40" as="geometry" />
        </mxCell>
        <mxCell id="XoLHvi1FjI8Cl4qUDjgd-58" value="name" style="ellipse;whiteSpace=wrap;html=1;fillColor=#e1d5e7;strokeColor=#9673a6;" parent="1" vertex="1">
          <mxGeometry x="60" y="740" width="80" height="40" as="geometry" />
        </mxCell>
        <mxCell id="XoLHvi1FjI8Cl4qUDjgd-59" value="label" style="ellipse;whiteSpace=wrap;html=1;fillColor=#e1d5e7;strokeColor=#9673a6;" parent="1" vertex="1">
          <mxGeometry x="140" y="700" width="80" height="40" as="geometry" />
        </mxCell>
        <mxCell id="XoLHvi1FjI8Cl4qUDjgd-61" value="#_id&lt;span style=&quot;color: rgba(0, 0, 0, 0); font-family: monospace; font-size: 0px; text-align: start; text-wrap: nowrap;&quot;&gt;%3CmxGraphModel%3E%3Croot%3E%3CmxCell%20id%3D%220%22%2F%3E%3CmxCell%20id%3D%221%22%20parent%3D%220%22%2F%3E%3CmxCell%20id%3D%222%22%20value%3D%22label%22%20style%3D%22ellipse%3BwhiteSpace%3Dwrap%3Bhtml%3D1%3BfillColor%3D%23e1d5e7%3BstrokeColor%3D%239673a6%3B%22%20vertex%3D%221%22%20parent%3D%221%22%3E%3CmxGeometry%20x%3D%22140%22%20y%3D%22700%22%20width%3D%2280%22%20height%3D%2240%22%20as%3D%22geometry%22%2F%3E%3C%2FmxCell%3E%3C%2Froot%3E%3C%2FmxGraphModel%3E&lt;/span&gt;" style="ellipse;whiteSpace=wrap;html=1;fillColor=#e1d5e7;strokeColor=#9673a6;" parent="1" vertex="1">
          <mxGeometry x="230" y="690" width="80" height="40" as="geometry" />
        </mxCell>
        <mxCell id="XoLHvi1FjI8Cl4qUDjgd-62" value="checkIn" style="ellipse;whiteSpace=wrap;html=1;fillColor=#e1d5e7;strokeColor=#9673a6;" parent="1" vertex="1">
          <mxGeometry x="330" y="720" width="80" height="40" as="geometry" />
        </mxCell>
        <mxCell id="XoLHvi1FjI8Cl4qUDjgd-63" value="checkOut" style="ellipse;whiteSpace=wrap;html=1;fillColor=#e1d5e7;strokeColor=#9673a6;" parent="1" vertex="1">
          <mxGeometry x="380" y="660" width="80" height="40" as="geometry" />
        </mxCell>
        <mxCell id="XoLHvi1FjI8Cl4qUDjgd-64" value="#_id" style="ellipse;whiteSpace=wrap;html=1;fillColor=#e1d5e7;strokeColor=#9673a6;" parent="1" vertex="1">
          <mxGeometry x="520" y="260" width="80" height="40" as="geometry" />
        </mxCell>
        <mxCell id="XoLHvi1FjI8Cl4qUDjgd-65" value="name" style="ellipse;whiteSpace=wrap;html=1;fillColor=#e1d5e7;strokeColor=#9673a6;" parent="1" vertex="1">
          <mxGeometry x="620" y="290" width="80" height="40" as="geometry" />
        </mxCell>
        <mxCell id="XoLHvi1FjI8Cl4qUDjgd-66" value="label" style="ellipse;whiteSpace=wrap;html=1;fillColor=#e1d5e7;strokeColor=#9673a6;" parent="1" vertex="1">
          <mxGeometry x="670" y="350" width="80" height="40" as="geometry" />
        </mxCell>
        <mxCell id="XoLHvi1FjI8Cl4qUDjgd-67" value="description" style="ellipse;whiteSpace=wrap;html=1;fillColor=#e1d5e7;strokeColor=#9673a6;" parent="1" vertex="1">
          <mxGeometry x="660" y="410" width="80" height="40" as="geometry" />
        </mxCell>
        <mxCell id="XoLHvi1FjI8Cl4qUDjgd-68" value="allowedDays" style="ellipse;whiteSpace=wrap;html=1;fillColor=#e1d5e7;strokeColor=#9673a6;" parent="1" vertex="1">
          <mxGeometry x="570" y="444" width="80" height="40" as="geometry" />
        </mxCell>
        <mxCell id="XoLHvi1FjI8Cl4qUDjgd-69" value="status" style="ellipse;whiteSpace=wrap;html=1;fillColor=#e1d5e7;strokeColor=#9673a6;" parent="1" vertex="1">
          <mxGeometry x="480" y="426" width="80" height="40" as="geometry" />
        </mxCell>
        <mxCell id="XoLHvi1FjI8Cl4qUDjgd-71" value="endDate" style="ellipse;whiteSpace=wrap;html=1;fillColor=#e1d5e7;strokeColor=#9673a6;" parent="1" vertex="1">
          <mxGeometry x="640" y="620" width="80" height="40" as="geometry" />
        </mxCell>
        <mxCell id="XoLHvi1FjI8Cl4qUDjgd-73" value="startDate" style="ellipse;whiteSpace=wrap;html=1;fillColor=#e1d5e7;strokeColor=#9673a6;" parent="1" vertex="1">
          <mxGeometry x="660" y="560" width="80" height="40" as="geometry" />
        </mxCell>
        <mxCell id="XoLHvi1FjI8Cl4qUDjgd-74" value="#_id" style="ellipse;whiteSpace=wrap;html=1;fillColor=#e1d5e7;strokeColor=#9673a6;" parent="1" vertex="1">
          <mxGeometry x="590" y="510" width="80" height="40" as="geometry" />
        </mxCell>
        <mxCell id="XoLHvi1FjI8Cl4qUDjgd-75" value="reason" style="ellipse;whiteSpace=wrap;html=1;fillColor=#e1d5e7;strokeColor=#9673a6;" parent="1" vertex="1">
          <mxGeometry x="510" y="690" width="80" height="40" as="geometry" />
        </mxCell>
        <mxCell id="XoLHvi1FjI8Cl4qUDjgd-76" value="status" style="ellipse;whiteSpace=wrap;html=1;fillColor=#e1d5e7;strokeColor=#9673a6;" parent="1" vertex="1">
          <mxGeometry x="590" y="670" width="80" height="40" as="geometry" />
        </mxCell>
        <mxCell id="XoLHvi1FjI8Cl4qUDjgd-77" value="Has" style="html=1;whiteSpace=wrap;aspect=fixed;shape=isoRectangle;fillColor=#d5e8d4;strokeColor=#82b366;" parent="1" vertex="1">
          <mxGeometry x="393.33" y="426" width="73.33" height="44" as="geometry" />
        </mxCell>
        <mxCell id="XoLHvi1FjI8Cl4qUDjgd-78" value="" style="endArrow=none;html=1;rounded=0;exitX=0.493;exitY=0.034;exitDx=0;exitDy=0;exitPerimeter=0;" parent="1" source="XoLHvi1FjI8Cl4qUDjgd-47" edge="1">
          <mxGeometry width="50" height="50" relative="1" as="geometry">
            <mxPoint x="159" y="437" as="sourcePoint" />
            <mxPoint x="158.67" y="370" as="targetPoint" />
          </mxGeometry>
        </mxCell>
        <mxCell id="XoLHvi1FjI8Cl4qUDjgd-79" value="" style="endArrow=none;html=1;rounded=0;exitX=0.5;exitY=0;exitDx=0;exitDy=0;entryX=0.023;entryY=0.501;entryDx=0;entryDy=0;entryPerimeter=0;" parent="1" source="XoLHvi1FjI8Cl4qUDjgd-49" target="XoLHvi1FjI8Cl4qUDjgd-47" edge="1">
          <mxGeometry width="50" height="50" relative="1" as="geometry">
            <mxPoint x="123.67" y="530" as="sourcePoint" />
            <mxPoint x="120" y="460" as="targetPoint" />
          </mxGeometry>
        </mxCell>
        <mxCell id="XoLHvi1FjI8Cl4qUDjgd-80" value="" style="endArrow=none;html=1;rounded=0;exitX=0.5;exitY=0;exitDx=0;exitDy=0;entryX=0.485;entryY=0.992;entryDx=0;entryDy=0;entryPerimeter=0;" parent="1" source="XoLHvi1FjI8Cl4qUDjgd-51" target="XoLHvi1FjI8Cl4qUDjgd-47" edge="1">
          <mxGeometry width="50" height="50" relative="1" as="geometry">
            <mxPoint x="159.59" y="555" as="sourcePoint" />
            <mxPoint x="160" y="490" as="targetPoint" />
          </mxGeometry>
        </mxCell>
        <mxCell id="XoLHvi1FjI8Cl4qUDjgd-82" value="" style="endArrow=none;html=1;rounded=0;exitX=0.5;exitY=0;exitDx=0;exitDy=0;entryX=0.75;entryY=0.761;entryDx=0;entryDy=0;entryPerimeter=0;" parent="1" source="XoLHvi1FjI8Cl4qUDjgd-50" target="XoLHvi1FjI8Cl4qUDjgd-47" edge="1">
          <mxGeometry width="50" height="50" relative="1" as="geometry">
            <mxPoint x="180.11" y="541" as="sourcePoint" />
            <mxPoint x="179.77999999999997" y="470" as="targetPoint" />
          </mxGeometry>
        </mxCell>
        <mxCell id="XoLHvi1FjI8Cl4qUDjgd-83" value="" style="endArrow=none;html=1;rounded=0;exitX=0;exitY=0;exitDx=0;exitDy=0;entryX=0.971;entryY=0.55;entryDx=0;entryDy=0;entryPerimeter=0;" parent="1" source="XoLHvi1FjI8Cl4qUDjgd-52" target="XoLHvi1FjI8Cl4qUDjgd-47" edge="1">
          <mxGeometry width="50" height="50" relative="1" as="geometry">
            <mxPoint x="298.67" y="550" as="sourcePoint" />
            <mxPoint x="200" y="462" as="targetPoint" />
          </mxGeometry>
        </mxCell>
        <mxCell id="XoLHvi1FjI8Cl4qUDjgd-84" value="" style="endArrow=none;html=1;rounded=0;" parent="1" edge="1">
          <mxGeometry width="50" height="50" relative="1" as="geometry">
            <mxPoint x="430" y="520" as="sourcePoint" />
            <mxPoint x="430" y="470" as="targetPoint" />
          </mxGeometry>
        </mxCell>
        <mxCell id="XoLHvi1FjI8Cl4qUDjgd-86" value="" style="endArrow=none;html=1;rounded=0;exitX=0.496;exitY=0.014;exitDx=0;exitDy=0;exitPerimeter=0;" parent="1" source="XoLHvi1FjI8Cl4qUDjgd-77" edge="1">
          <mxGeometry width="50" height="50" relative="1" as="geometry">
            <mxPoint x="429.6" y="410" as="sourcePoint" />
            <mxPoint x="429.6" y="360" as="targetPoint" />
          </mxGeometry>
        </mxCell>
        <mxCell id="XoLHvi1FjI8Cl4qUDjgd-90" value="" style="endArrow=none;html=1;rounded=0;exitX=0.5;exitY=0;exitDx=0;exitDy=0;entryX=0.023;entryY=0.501;entryDx=0;entryDy=0;entryPerimeter=0;" parent="1" source="XoLHvi1FjI8Cl4qUDjgd-56" edge="1">
          <mxGeometry width="50" height="50" relative="1" as="geometry">
            <mxPoint x="-162.5" y="638" as="sourcePoint" />
            <mxPoint x="-37.5" y="570" as="targetPoint" />
          </mxGeometry>
        </mxCell>
        <mxCell id="XoLHvi1FjI8Cl4qUDjgd-91" value="" style="endArrow=none;html=1;rounded=0;exitX=0.5;exitY=0;exitDx=0;exitDy=0;entryX=0;entryY=0.5;entryDx=0;entryDy=0;" parent="1" target="XoLHvi1FjI8Cl4qUDjgd-49" edge="1">
          <mxGeometry width="50" height="50" relative="1" as="geometry">
            <mxPoint x="-130" y="570" as="sourcePoint" />
            <mxPoint x="-67.5" y="530" as="targetPoint" />
          </mxGeometry>
        </mxCell>
        <mxCell id="XoLHvi1FjI8Cl4qUDjgd-92" value="" style="endArrow=none;html=1;rounded=0;entryX=0;entryY=0.25;entryDx=0;entryDy=0;" parent="1" source="XoLHvi1FjI8Cl4qUDjgd-54" target="XoLHvi1FjI8Cl4qUDjgd-49" edge="1">
          <mxGeometry width="50" height="50" relative="1" as="geometry">
            <mxPoint x="-72.5" y="520" as="sourcePoint" />
            <mxPoint x="-10" y="480" as="targetPoint" />
          </mxGeometry>
        </mxCell>
        <mxCell id="XoLHvi1FjI8Cl4qUDjgd-93" value="" style="endArrow=none;html=1;rounded=0;exitX=0.5;exitY=0;exitDx=0;exitDy=0;entryX=0.023;entryY=0.501;entryDx=0;entryDy=0;entryPerimeter=0;" parent="1" source="XoLHvi1FjI8Cl4qUDjgd-57" edge="1">
          <mxGeometry width="50" height="50" relative="1" as="geometry">
            <mxPoint x="27.5" y="680" as="sourcePoint" />
            <mxPoint x="90" y="640" as="targetPoint" />
          </mxGeometry>
        </mxCell>
        <mxCell id="XoLHvi1FjI8Cl4qUDjgd-94" value="" style="endArrow=none;html=1;rounded=0;exitX=0.5;exitY=0;exitDx=0;exitDy=0;entryX=0.023;entryY=0.501;entryDx=0;entryDy=0;entryPerimeter=0;" parent="1" source="XoLHvi1FjI8Cl4qUDjgd-58" edge="1">
          <mxGeometry width="50" height="50" relative="1" as="geometry">
            <mxPoint x="50" y="690" as="sourcePoint" />
            <mxPoint x="110" y="640" as="targetPoint" />
          </mxGeometry>
        </mxCell>
        <mxCell id="XoLHvi1FjI8Cl4qUDjgd-95" value="" style="endArrow=none;html=1;rounded=0;exitX=0.5;exitY=0;exitDx=0;exitDy=0;entryX=0.5;entryY=1;entryDx=0;entryDy=0;" parent="1" source="XoLHvi1FjI8Cl4qUDjgd-59" target="XoLHvi1FjI8Cl4qUDjgd-51" edge="1">
          <mxGeometry width="50" height="50" relative="1" as="geometry">
            <mxPoint x="90" y="690" as="sourcePoint" />
            <mxPoint x="150" y="640" as="targetPoint" />
          </mxGeometry>
        </mxCell>
        <mxCell id="XoLHvi1FjI8Cl4qUDjgd-97" value="" style="endArrow=none;html=1;rounded=0;entryX=0.25;entryY=1;entryDx=0;entryDy=0;" parent="1" source="XoLHvi1FjI8Cl4qUDjgd-61" target="XoLHvi1FjI8Cl4qUDjgd-50" edge="1">
          <mxGeometry width="50" height="50" relative="1" as="geometry">
            <mxPoint x="260" y="700" as="sourcePoint" />
            <mxPoint x="270" y="600" as="targetPoint" />
          </mxGeometry>
        </mxCell>
        <mxCell id="XoLHvi1FjI8Cl4qUDjgd-98" value="" style="endArrow=none;html=1;rounded=0;exitX=0.5;exitY=0;exitDx=0;exitDy=0;entryX=0.5;entryY=1;entryDx=0;entryDy=0;" parent="1" source="XoLHvi1FjI8Cl4qUDjgd-62" target="XoLHvi1FjI8Cl4qUDjgd-50" edge="1">
          <mxGeometry width="50" height="50" relative="1" as="geometry">
            <mxPoint x="290" y="700" as="sourcePoint" />
            <mxPoint x="300" y="600" as="targetPoint" />
          </mxGeometry>
        </mxCell>
        <mxCell id="XoLHvi1FjI8Cl4qUDjgd-100" value="" style="endArrow=none;html=1;rounded=0;exitX=0;exitY=0;exitDx=0;exitDy=0;entryX=0.75;entryY=1;entryDx=0;entryDy=0;" parent="1" source="XoLHvi1FjI8Cl4qUDjgd-63" target="XoLHvi1FjI8Cl4qUDjgd-50" edge="1">
          <mxGeometry width="50" height="50" relative="1" as="geometry">
            <mxPoint x="380" y="730" as="sourcePoint" />
            <mxPoint x="290" y="610" as="targetPoint" />
          </mxGeometry>
        </mxCell>
        <mxCell id="XoLHvi1FjI8Cl4qUDjgd-102" value="" style="endArrow=none;html=1;rounded=0;exitX=0;exitY=0;exitDx=0;exitDy=0;entryX=0.5;entryY=1;entryDx=0;entryDy=0;" parent="1" source="XoLHvi1FjI8Cl4qUDjgd-75" target="XoLHvi1FjI8Cl4qUDjgd-52" edge="1">
          <mxGeometry width="50" height="50" relative="1" as="geometry">
            <mxPoint x="310" y="600" as="sourcePoint" />
            <mxPoint x="188" y="483" as="targetPoint" />
          </mxGeometry>
        </mxCell>
        <mxCell id="XoLHvi1FjI8Cl4qUDjgd-103" value="" style="endArrow=none;html=1;rounded=0;exitX=0;exitY=0;exitDx=0;exitDy=0;entryX=0.75;entryY=1;entryDx=0;entryDy=0;" parent="1" source="XoLHvi1FjI8Cl4qUDjgd-76" target="XoLHvi1FjI8Cl4qUDjgd-52" edge="1">
          <mxGeometry width="50" height="50" relative="1" as="geometry">
            <mxPoint x="320" y="610" as="sourcePoint" />
            <mxPoint x="198" y="493" as="targetPoint" />
          </mxGeometry>
        </mxCell>
        <mxCell id="XoLHvi1FjI8Cl4qUDjgd-104" value="" style="endArrow=none;html=1;rounded=0;exitX=0;exitY=0.5;exitDx=0;exitDy=0;entryX=1;entryY=1;entryDx=0;entryDy=0;" parent="1" source="XoLHvi1FjI8Cl4qUDjgd-71" target="XoLHvi1FjI8Cl4qUDjgd-52" edge="1">
          <mxGeometry width="50" height="50" relative="1" as="geometry">
            <mxPoint x="612" y="686" as="sourcePoint" />
            <mxPoint x="460" y="570" as="targetPoint" />
          </mxGeometry>
        </mxCell>
        <mxCell id="XoLHvi1FjI8Cl4qUDjgd-105" value="" style="endArrow=none;html=1;rounded=0;exitX=0;exitY=0.5;exitDx=0;exitDy=0;entryX=1;entryY=0.75;entryDx=0;entryDy=0;" parent="1" source="XoLHvi1FjI8Cl4qUDjgd-73" target="XoLHvi1FjI8Cl4qUDjgd-52" edge="1">
          <mxGeometry width="50" height="50" relative="1" as="geometry">
            <mxPoint x="650" y="650" as="sourcePoint" />
            <mxPoint x="480" y="570" as="targetPoint" />
          </mxGeometry>
        </mxCell>
        <mxCell id="XoLHvi1FjI8Cl4qUDjgd-106" value="" style="endArrow=none;html=1;rounded=0;exitX=0;exitY=0.5;exitDx=0;exitDy=0;entryX=1;entryY=0.5;entryDx=0;entryDy=0;" parent="1" source="XoLHvi1FjI8Cl4qUDjgd-74" target="XoLHvi1FjI8Cl4qUDjgd-52" edge="1">
          <mxGeometry width="50" height="50" relative="1" as="geometry">
            <mxPoint x="670" y="590" as="sourcePoint" />
            <mxPoint x="480" y="560" as="targetPoint" />
          </mxGeometry>
        </mxCell>
        <mxCell id="XoLHvi1FjI8Cl4qUDjgd-107" value="" style="endArrow=none;html=1;rounded=0;exitX=0.5;exitY=0;exitDx=0;exitDy=0;entryX=0.75;entryY=1;entryDx=0;entryDy=0;" parent="1" source="XoLHvi1FjI8Cl4qUDjgd-69" target="XoLHvi1FjI8Cl4qUDjgd-53" edge="1">
          <mxGeometry width="50" height="50" relative="1" as="geometry">
            <mxPoint x="600" y="540" as="sourcePoint" />
            <mxPoint x="480" y="550" as="targetPoint" />
          </mxGeometry>
        </mxCell>
        <mxCell id="XoLHvi1FjI8Cl4qUDjgd-108" value="" style="endArrow=none;html=1;rounded=0;exitX=0.5;exitY=0;exitDx=0;exitDy=0;entryX=1;entryY=1;entryDx=0;entryDy=0;" parent="1" source="XoLHvi1FjI8Cl4qUDjgd-68" target="XoLHvi1FjI8Cl4qUDjgd-53" edge="1">
          <mxGeometry width="50" height="50" relative="1" as="geometry">
            <mxPoint x="530" y="436" as="sourcePoint" />
            <mxPoint x="460" y="370" as="targetPoint" />
          </mxGeometry>
        </mxCell>
        <mxCell id="XoLHvi1FjI8Cl4qUDjgd-109" value="" style="endArrow=none;html=1;rounded=0;exitX=0;exitY=0.5;exitDx=0;exitDy=0;entryX=1;entryY=0.75;entryDx=0;entryDy=0;" parent="1" source="XoLHvi1FjI8Cl4qUDjgd-67" target="XoLHvi1FjI8Cl4qUDjgd-53" edge="1">
          <mxGeometry width="50" height="50" relative="1" as="geometry">
            <mxPoint x="620" y="454" as="sourcePoint" />
            <mxPoint x="480" y="370" as="targetPoint" />
          </mxGeometry>
        </mxCell>
        <mxCell id="XoLHvi1FjI8Cl4qUDjgd-110" value="" style="endArrow=none;html=1;rounded=0;exitX=0;exitY=1;exitDx=0;exitDy=0;entryX=1;entryY=0.5;entryDx=0;entryDy=0;" parent="1" source="XoLHvi1FjI8Cl4qUDjgd-66" target="XoLHvi1FjI8Cl4qUDjgd-53" edge="1">
          <mxGeometry width="50" height="50" relative="1" as="geometry">
            <mxPoint x="670" y="440" as="sourcePoint" />
            <mxPoint x="480" y="360" as="targetPoint" />
          </mxGeometry>
        </mxCell>
        <mxCell id="XoLHvi1FjI8Cl4qUDjgd-113" value="" style="endArrow=none;html=1;rounded=0;exitX=0;exitY=0.5;exitDx=0;exitDy=0;entryX=1;entryY=0.25;entryDx=0;entryDy=0;" parent="1" source="XoLHvi1FjI8Cl4qUDjgd-65" target="XoLHvi1FjI8Cl4qUDjgd-53" edge="1">
          <mxGeometry width="50" height="50" relative="1" as="geometry">
            <mxPoint x="692" y="394" as="sourcePoint" />
            <mxPoint x="480" y="350" as="targetPoint" />
          </mxGeometry>
        </mxCell>
        <mxCell id="XoLHvi1FjI8Cl4qUDjgd-114" value="" style="endArrow=none;html=1;rounded=0;exitX=0;exitY=0.5;exitDx=0;exitDy=0;entryX=1;entryY=0;entryDx=0;entryDy=0;" parent="1" source="XoLHvi1FjI8Cl4qUDjgd-64" target="XoLHvi1FjI8Cl4qUDjgd-53" edge="1">
          <mxGeometry width="50" height="50" relative="1" as="geometry">
            <mxPoint x="630" y="320" as="sourcePoint" />
            <mxPoint x="480" y="340" as="targetPoint" />
          </mxGeometry>
        </mxCell>
        <mxCell id="P3_H_fCTKheCKAEJ2EQB-1" value="" style="endArrow=none;html=1;rounded=0;entryX=0;entryY=0.5;entryDx=0;entryDy=0;exitX=0.954;exitY=0.303;exitDx=0;exitDy=0;exitPerimeter=0;" parent="1" source="XoLHvi1FjI8Cl4qUDjgd-43" edge="1">
          <mxGeometry width="50" height="50" relative="1" as="geometry">
            <mxPoint x="30" y="380" as="sourcePoint" />
            <mxPoint x="120" y="360" as="targetPoint" />
          </mxGeometry>
        </mxCell>
        <mxCell id="P3_H_fCTKheCKAEJ2EQB-2" value="" style="endArrow=none;html=1;rounded=0;entryX=0;entryY=0.5;entryDx=0;entryDy=0;exitX=0.689;exitY=0.03;exitDx=0;exitDy=0;exitPerimeter=0;" parent="1" source="XoLHvi1FjI8Cl4qUDjgd-45" edge="1">
          <mxGeometry width="50" height="50" relative="1" as="geometry">
            <mxPoint x="36" y="392" as="sourcePoint" />
            <mxPoint x="130" y="370" as="targetPoint" />
          </mxGeometry>
        </mxCell>
        <mxCell id="P3_H_fCTKheCKAEJ2EQB-3" value="" style="endArrow=none;html=1;rounded=0;entryX=0;entryY=0.5;entryDx=0;entryDy=0;" parent="1" target="XoLHvi1FjI8Cl4qUDjgd-37" edge="1">
          <mxGeometry width="50" height="50" relative="1" as="geometry">
            <mxPoint x="10" y="344" as="sourcePoint" />
            <mxPoint x="65" y="310" as="targetPoint" />
          </mxGeometry>
        </mxCell>
        <mxCell id="P3_H_fCTKheCKAEJ2EQB-4" value="" style="endArrow=none;html=1;rounded=0;entryX=0;entryY=0.25;entryDx=0;entryDy=0;exitX=1;exitY=1;exitDx=0;exitDy=0;" parent="1" source="XoLHvi1FjI8Cl4qUDjgd-41" target="XoLHvi1FjI8Cl4qUDjgd-37" edge="1">
          <mxGeometry width="50" height="50" relative="1" as="geometry">
            <mxPoint x="20" y="354" as="sourcePoint" />
            <mxPoint x="130" y="360" as="targetPoint" />
          </mxGeometry>
        </mxCell>
        <mxCell id="EOI6-aDwTjJ-vbTzw31P-14" value="User" style="rounded=0;whiteSpace=wrap;html=1;fillColor=#dae8fc;strokeColor=#6c8ebf;" vertex="1" parent="1">
          <mxGeometry x="266.68" y="-10" width="80" height="40" as="geometry" />
        </mxCell>
        <mxCell id="EOI6-aDwTjJ-vbTzw31P-15" value="username&lt;span style=&quot;color: rgba(0, 0, 0, 0); font-family: monospace; font-size: 0px; text-align: start; text-wrap: nowrap;&quot;&gt;%3CmxGraphModel%3E%3Croot%3E%3CmxCell%20id%3D%220%22%2F%3E%3CmxCell%20id%3D%221%22%20parent%3D%220%22%2F%3E%3CmxCell%20id%3D%222%22%20value%3D%22%23_id%22%20style%3D%22ellipse%3BwhiteSpace%3Dwrap%3Bhtml%3D1%3B%22%20vertex%3D%221%22%20parent%3D%221%22%3E%3CmxGeometry%20x%3D%2230%22%20y%3D%22110%22%20width%3D%2280%22%20height%3D%2240%22%20as%3D%22geometry%22%2F%3E%3C%2FmxCell%3E%3C%2Froot%3E%3C%2FmxGraphModel%3E&lt;/span&gt;&lt;span style=&quot;color: rgba(0, 0, 0, 0); font-family: monospace; font-size: 0px; text-align: start; text-wrap: nowrap;&quot;&gt;%3CmxGraphModel%3E%3Croot%3E%3CmxCell%20id%3D%220%22%2F%3E%3CmxCell%20id%3D%221%22%20parent%3D%220%22%2F%3E%3CmxCell%20id%3D%222%22%20value%3D%22%23_id%22%20style%3D%22ellipse%3BwhiteSpace%3Dwrap%3Bhtml%3D1%3B%22%20vertex%3D%221%22%20parent%3D%221%22%3E%3CmxGeometry%20x%3D%2230%22%20y%3D%22110%22%20width%3D%2280%22%20height%3D%2240%22%20as%3D%22geometry%22%2F%3E%3C%2FmxCell%3E%3C%2Froot%3E%3C%2FmxGraphModel%3E&lt;/span&gt;" style="ellipse;whiteSpace=wrap;html=1;fillColor=#e1d5e7;strokeColor=#9673a6;" vertex="1" parent="1">
          <mxGeometry x="123.34" y="-40" width="80" height="40" as="geometry" />
        </mxCell>
        <mxCell id="EOI6-aDwTjJ-vbTzw31P-16" value="email" style="ellipse;whiteSpace=wrap;html=1;fillColor=#e1d5e7;strokeColor=#9673a6;" vertex="1" parent="1">
          <mxGeometry x="223.34" y="-120" width="80" height="40" as="geometry" />
        </mxCell>
        <mxCell id="EOI6-aDwTjJ-vbTzw31P-17" value="password" style="ellipse;whiteSpace=wrap;html=1;fillColor=#e1d5e7;strokeColor=#9673a6;" vertex="1" parent="1">
          <mxGeometry x="346.67999999999995" y="-100" width="80" height="40" as="geometry" />
        </mxCell>
        <mxCell id="EOI6-aDwTjJ-vbTzw31P-18" value="status" style="ellipse;whiteSpace=wrap;html=1;fillColor=#e1d5e7;strokeColor=#9673a6;" vertex="1" parent="1">
          <mxGeometry x="403.34" y="-30" width="80" height="40" as="geometry" />
        </mxCell>
        <mxCell id="EOI6-aDwTjJ-vbTzw31P-19" value="" style="endArrow=none;html=1;rounded=0;exitX=0.971;exitY=0.32;exitDx=0;exitDy=0;exitPerimeter=0;" edge="1" parent="1" source="EOI6-aDwTjJ-vbTzw31P-25">
          <mxGeometry width="50" height="50" relative="1" as="geometry">
            <mxPoint x="236.68" y="50" as="sourcePoint" />
            <mxPoint x="266.68" y="20" as="targetPoint" />
          </mxGeometry>
        </mxCell>
        <mxCell id="EOI6-aDwTjJ-vbTzw31P-20" value="" style="endArrow=none;html=1;rounded=0;entryX=0;entryY=0;entryDx=0;entryDy=0;exitX=1;exitY=0.5;exitDx=0;exitDy=0;" edge="1" parent="1" target="EOI6-aDwTjJ-vbTzw31P-14" source="EOI6-aDwTjJ-vbTzw31P-15">
          <mxGeometry width="50" height="50" relative="1" as="geometry">
            <mxPoint x="201.68" y="20" as="sourcePoint" />
            <mxPoint x="251.68000000000004" y="-30" as="targetPoint" />
          </mxGeometry>
        </mxCell>
        <mxCell id="EOI6-aDwTjJ-vbTzw31P-21" value="" style="endArrow=none;html=1;rounded=0;entryX=0.25;entryY=0;entryDx=0;entryDy=0;exitX=0.5;exitY=1;exitDx=0;exitDy=0;" edge="1" parent="1" source="EOI6-aDwTjJ-vbTzw31P-16" target="EOI6-aDwTjJ-vbTzw31P-14">
          <mxGeometry width="50" height="50" relative="1" as="geometry">
            <mxPoint x="186.68" y="-20" as="sourcePoint" />
            <mxPoint x="236.68" y="-70" as="targetPoint" />
          </mxGeometry>
        </mxCell>
        <mxCell id="EOI6-aDwTjJ-vbTzw31P-22" value="" style="endArrow=none;html=1;rounded=0;entryX=0.5;entryY=0;entryDx=0;entryDy=0;exitX=0.369;exitY=1.01;exitDx=0;exitDy=0;exitPerimeter=0;" edge="1" parent="1" source="EOI6-aDwTjJ-vbTzw31P-17" target="EOI6-aDwTjJ-vbTzw31P-14">
          <mxGeometry width="50" height="50" relative="1" as="geometry">
            <mxPoint x="236.68" y="-60" as="sourcePoint" />
            <mxPoint x="286.68" y="-110" as="targetPoint" />
          </mxGeometry>
        </mxCell>
        <mxCell id="EOI6-aDwTjJ-vbTzw31P-23" value="" style="endArrow=none;html=1;rounded=0;" edge="1" parent="1" target="EOI6-aDwTjJ-vbTzw31P-18">
          <mxGeometry width="50" height="50" relative="1" as="geometry">
            <mxPoint x="353.34" y="10" as="sourcePoint" />
            <mxPoint x="331.68" y="-60" as="targetPoint" />
          </mxGeometry>
        </mxCell>
        <mxCell id="EOI6-aDwTjJ-vbTzw31P-24" value="" style="endArrow=none;html=1;rounded=0;entryX=0.5;entryY=1;entryDx=0;entryDy=0;exitX=0.537;exitY=0.013;exitDx=0;exitDy=0;exitPerimeter=0;" edge="1" parent="1" target="EOI6-aDwTjJ-vbTzw31P-14" source="XoLHvi1FjI8Cl4qUDjgd-22">
          <mxGeometry width="50" height="50" relative="1" as="geometry">
            <mxPoint x="323.34000000000003" y="90" as="sourcePoint" />
            <mxPoint x="322.89" y="50" as="targetPoint" />
          </mxGeometry>
        </mxCell>
        <mxCell id="EOI6-aDwTjJ-vbTzw31P-25" value="#_id" style="ellipse;whiteSpace=wrap;html=1;fillColor=#e1d5e7;strokeColor=#9673a6;" vertex="1" parent="1">
          <mxGeometry x="133.34" y="20" width="80" height="40" as="geometry" />
        </mxCell>
      </root>
    </mxGraphModel>
  </diagram>
</mxfile>
